<?xml version="1.0" standalone="no"?>
<!DOCTYPE svg PUBLIC "-//W3C//DTD SVG 20010904//EN"
 "http://www.w3.org/TR/2001/REC-SVG-20010904/DTD/svg10.dtd">
<svg version="1.0" xmlns="http://www.w3.org/2000/svg"
 width="900.000000pt" height="900.000000pt" viewBox="0 0 900.000000 900.000000"
 preserveAspectRatio="xMidYMid meet">

<g transform="translate(0.000000,900.000000) scale(0.100000,-0.100000)"
fill="#000000" stroke="none">
<path d="M0 4500 l0 -4500 4500 0 4500 0 0 4500 0 4500 -4500 0 -4500 0 0
-4500z m2438 1557 l2 -1179 137 179 c75 98 471 619 881 1158 409 539 754 990
765 1003 l20 22 769 0 c422 0 768 -3 768 -7 0 -5 -168 -220 -373 -479 -1394
-1763 -1709 -2163 -1708 -2171 1 -4 473 -606 1049 -1337 576 -732 1062 -1349
1080 -1373 l33 -43 -808 1 -808 0 -670 882 c-368 485 -773 1016 -900 1181
l-230 299 -3 -1181 -2 -1182 -660 0 -660 0 0 2705 0 2705 658 -2 657 -3 3
-1178z m4834 -2871 c217 -43 387 -153 498 -322 128 -195 146 -470 45 -682 -88
-186 -254 -321 -472 -384 -68 -20 -100 -23 -253 -22 -169 0 -178 1 -270 32
-130 43 -210 92 -306 187 -134 133 -197 288 -197 485 0 278 143 510 389 634
75 37 161 65 239 76 86 13 250 11 327 -4z"/>
</g>
</svg>
